<?xml version="1.0" encoding="UTF-8"?>
<svg width="1200pt" height="1200pt" version="1.1" viewBox="0 0 1200 1200" xmlns="http://www.w3.org/2000/svg">
 <path d="m786.32 460.08c3.4688 3.5625 5.3906 8.3906 5.3438 13.359-0.09375 4.9688-2.1094 9.7031-5.6719 13.172-12.375 13.359-29.531 21.234-47.672 21.938-1.2656 0-2.5781 0-3.7969-0.14062h-0.046875c-17.297-1.6875-33.234-10.172-44.25-23.625-6.1875-8.1094-4.7344-19.641 3.2812-26.016 7.9688-6.3281 19.547-5.1094 26.062 2.7188 4.5469 5.2031 10.781 8.625 17.625 9.6094 8.7188-0.84375 16.781-4.875 22.641-11.344 3.5625-3.4688 8.3438-5.3906 13.312-5.2969 4.9688 0.046875 9.7031 2.0625 13.172 5.625zm-320.11-2.3906c-77.203 65.016-134.81 8.3906-141.24 1.5938-7.0312-7.5938-18.891-8.0625-26.531-0.98438-7.5938 7.0312-8.0625 18.891-0.98438 26.484 24.891 26.016 59.203 40.922 95.25 41.297 36.234-1.0312 70.969-15.094 97.688-39.609 3.8906-3.1875 6.375-7.7812 6.8438-12.797 0.51562-5.0156-1.0781-10.031-4.3125-13.875s-7.9219-6.2344-12.938-6.6094-9.9844 1.2656-13.781 4.5938zm733.69 276.61c1.2188 20.906-6.2344 41.391-20.625 56.625-14.344 15.234-34.359 23.859-55.312 23.859s-40.969-8.625-55.359-23.859c-14.344-15.234-21.797-35.719-20.625-56.625-0.28125-26.766 12.609-51.984 34.5-67.453-6-13.266-13.312-25.922-21.797-37.781-7.8281-10.547-16.969-20.109-27.141-28.359-8.0625 51.562-39.891 96.375-85.969 120.98l65.578 337.92c16.266 36.234-15.141 86.25-74.531 117.7-24.703 13.828-52.406 21.562-80.719 22.5-9.1875 0.09375-18.328-1.125-27.188-3.7031-13.875-3.75-25.641-12.984-32.625-25.547-19.219-36.328 12.141-88.125 72.797-120.47 4.0781-2.1562 7.9219-3.4688 12-5.2969l-63.938-292.69c-11.719 0.60938-23.344 1.3125-35.531 1.3125-4.5938 0-8.8125-0.1875-13.266-0.28125l-8.6719 375c0 40.688-52.125 71.719-121.22 71.719-53.391 0-96.281-18.75-113.02-46.312h0.046874c-21.422 19.125-47.203 32.672-75.047 39.469-16.688 4.5-33.891 6.8906-51.188 6.9844-20.391 0.65625-40.594-4.0312-58.594-13.594-7.9219-4.7344-14.531-11.391-19.312-19.312-24.844 18-54.188 28.828-84.75 31.219-7.9688 0.9375-15.984 1.4062-24 1.4062-29.531 1.3125-58.641-6.8906-83.109-23.438-11.766-8.3906-19.453-21.375-21.094-35.719-1.6406-14.344 2.9062-28.734 12.516-39.562 18.844-23.812 56.109-40.922 99.609-45.703 3.4688-0.42188 6.8438-0.1875 10.359-0.42188l3.2812-324.66c-70.453-25.078-111.98-73.266-123.61-143.95-0.14062 0.5625-0.51562 1.0781-0.65625 1.6406v0.046875c-5.5781 22.453-7.6406 45.656-6 68.719 1.0312 13.734 3 27.375 5.9062 40.828 27.375 11.438 46.219 37.031 49.031 66.562 2.8594 29.531-10.828 58.219-35.531 74.672s-56.438 17.953-82.594 3.9375c-26.109-14.016-42.469-41.297-42.422-70.969 0.14062-23.016 10.031-44.859 27.234-60.188-4.3594-14.812-7.8281-29.906-10.312-45.188-5.2969-32.719-5.4375-66.094-0.32812-98.812 6.1406-35.766 20.625-69.562 42.281-98.625 20.203-26.578 45.703-48.609 74.906-64.734 9.0938-26.438 20.109-52.219 32.906-77.109-28.031-20.812-43.266-54.656-40.312-89.484 2.9531-34.781 23.719-65.578 54.844-81.375v-0.51562c-0.09375-29.016 12.234-56.719 33.891-76.078 21.656-19.312 50.578-28.453 79.406-25.078 15.656-29.906 45.094-50.109 78.656-53.906 33.516-3.7969 66.75 9.2344 88.734 34.875 45.656-2.9062 87.562 25.172 102.23 68.484 26.016 7.2188 48 24.656 60.891 48.375 12.938 23.719 15.656 51.656 7.6406 77.438 45.094-60.141 97.219-92.812 150.66-92.812 77.391 0 153.37 70.406 205.64 188.29v-0.046874c2.625-0.46875 5.2969-0.75 7.9688-0.84375 41.578 0 75.375 39.375 75.375 87.75 0.32812 24.797-9.1406 48.75-26.391 66.562 18.938 10.734 36.281 24.141 51.469 39.703 17.906 18.047 32.812 38.859 44.203 61.594 10.828 21.234 19.172 43.688 24.938 66.844 2.1094 8.3906 3.7031 16.641 5.0625 24.938 18.094 15.75 28.406 38.578 28.219 62.531zm-1081.5-273.98c-11.016 8.7656-20.766 19.031-28.969 30.469-18.281 24.375-30.516 52.688-35.766 82.688-4.4062 28.875-4.3125 58.312 0.42188 87.141 3.0469 17.812 7.3594 35.438 12.844 52.688l4.1719 13.828-12.328 7.5469c-12.984 7.8281-21 21.844-21.234 37.031 0 16.5 9.4219 31.5 24.188 38.719 14.812 7.1719 32.438 5.2969 45.375-4.8281 12.938-10.172 18.984-26.859 15.516-42.938s-15.844-28.781-31.828-32.719l-11.156-2.8594-2.5312-11.203h0.046875c-4.4062-18.75-7.3594-37.828-8.7656-57.094-1.875-27 0.5625-54.141 7.2188-80.391 6.5156-24.141 18.516-46.5 35.062-65.297 1.4531-17.719 4.0312-35.391 7.7344-52.781zm840.71-48.188c0 27.422 17.344 50.625 37.922 50.625 21.844-1.5469 37.875-24.094 37.875-50.625 0-27.234-17.344-50.25-37.875-50.25-3.7969 0-7.5469 0.84375-10.969 2.3906l-0.32812 0.14062h-0.09375c-17.391 9.4219-27.75 28.031-26.531 47.719zm-774.1-117.7c61.219-100.08 141.61-157.5 223.6-157.5 63 0 126.52 35.062 181.03 98.672h-0.046875c11.672-18.094 13.453-40.875 4.6406-60.516-8.7656-19.641-26.906-33.516-48.188-36.844l-12.609-2.1094-2.6719-12.469h0.046875c-7.875-33.469-40.266-55.172-74.203-49.688l-11.766 1.8281-6.75-9.8438v-0.046875c-13.734-20.391-37.922-31.219-62.25-27.797-24.375 3.4219-44.672 20.438-52.219 43.828l-5.7188 17.391-17.531-5.25c-5.5312-1.8281-11.344-2.7656-17.156-2.8594-35.578 0.046875-64.406 28.875-64.453 64.406 0 3.0469 0.28125 6.0469 0.84375 9l2.9062 15.844-15.234 5.25h-0.046875c-21.609 7.3125-37.781 25.547-42.375 47.953-4.5938 22.359 3.0469 45.516 20.109 60.703zm147.28 455.58c-19.781-1.6406-39.422-4.5469-58.828-8.6719l-3.375 331.69v0.60937c-0.14063 0.89063-0.375 1.7344-0.70313 2.625-0.1875 1.5-0.60937 3-1.1719 4.4531-0.09375 0.23437-0.28125 0.375-0.42188 0.60937-2.1094 4.1719-5.7656 7.3594-10.172 9-0.14063 0-0.28125 0-0.42188 0.09375v-0.046874c-1.875 0.75-3.8438 1.1719-5.9062 1.2188h-0.1875 0.046876c-0.14063 0-0.23438-0.046876-0.32813-0.046876s-0.1875 0.046876-0.28125 0c-7.9688-0.32812-15.984 0-23.906 0.9375-39.938 4.4062-65.062 19.828-74.484 31.688-3.0938 3.2812-4.7812 7.5938-4.6406 12.094 0.98438 4.3125 3.5625 8.0625 7.1719 10.547 12.797 10.172 42.188 18.469 79.594 14.156 43.219-4.6406 72.844-23.25 78.797-38.391 0.375-1.6406 0.51563-3.2812 0.32813-4.9219zm181.97 351.37-0.5625-4.5469-1.0312-350.58c-16.594 2.5312-34.734 4.3594-54.422 5.5312l6.8438 314.48c-0.09375 0.9375-0.23438 1.8281-0.51563 2.7656-0.09375 1.2188-0.28125 2.3906-0.65625 3.6094-1.0312 3.375-3.2344 6.3281-6.1406 8.3906-1.7812 1.6875-4.0781 2.8594-6.5156 3.2812-0.84375 0.32812-1.7344 0.60938-2.625 0.84375-8.0156 0.89062-15.938 2.4375-23.766 4.5469-40.359 10.781-66.469 32.25-71.438 47.906-0.84375 2.2969-0.98438 4.7812-0.375 7.1719 1.5469 3.9844 4.5469 7.2656 8.3906 9.1875 14.156 8.3438 44.812 12.375 81.141 2.7188 40.125-10.688 66.234-32.156 71.203-47.859 0.84375-2.3906 0.98438-4.9688 0.42188-7.4531zm-99.281-47.766c4.125-1.2188 8.1562-1.5469 12.234-2.3906l-6.5156-298.03c-4.0781 0-8.1094 0.14062-12.141 0.14062-13.219 0-26.016-0.70312-38.906-1.2188l-17.297 330.56 0.046876 0.046875c18.891-13.5 40.125-23.344 62.578-29.109zm162.98-362.76c-33.234-34.406-49.734-83.016-49.734-147.98 2.1094-84.984 23.344-168.37 62.062-244.03-5.2969-7.8281-10.594-15.703-15.984-23.203-49.969-65.156-108.94-101.25-165.71-101.25-71.719 0-147.05 58.172-201.61 155.68-16.875 30.609-30.75 62.812-41.344 96.094-10.266 31.688-16.547 64.547-18.797 97.781-0.375 7.2188-0.70312 13.078-0.70312 18.938 0 83.531 36.234 133.22 114.09 156.37h0.046875c30.234 8.4844 61.359 13.453 92.766 14.859 18.188 1.4062 35.391 1.7344 56.156 1.7812 9.7031 0 19.453 0 29.203-0.32812 29.906-0.65625 59.719-3.7969 89.156-9.4219 17.25-3.375 34.125-8.4844 50.391-15.234zm-26.812 387.28c27-15.703 57.891-23.531 89.156-22.594 2.7188 0 5.0625 0.46875 7.7344 0.60938l-6.2344-324.24c-10.781-4.0312-21.094-9.0469-30.938-15.047-19.266 9.7031-39.703 17.062-60.75 21.938zm181.5-326.76c-17.859-1.2656-35.625-3.8438-53.109-7.6875l6.4219 332.39h-0.046876c-0.046874 0.46875-0.14062 0.9375-0.23437 1.3594 0 0.46875 0.1875 0.9375 0.09375 1.4062-0.1875 0.79688-0.46875 1.5469-0.75 2.3438-0.51563 2.3906-1.5938 4.6406-3.1875 6.5156-0.65625 0.89062-1.4062 1.7344-2.2031 2.5312-0.89062 0.75-1.8281 1.4062-2.8125 1.9688-1.0781 0.70312-2.25 1.2656-3.4688 1.6875-0.98437 0.32812-2.0625 0.5625-3.0938 0.70312-0.89062 0.28125-1.7812 0.46875-2.7188 0.60938h-0.32812c-0.42188 0-0.79688-0.23438-1.2188-0.23438-0.375-0.046875-0.75 0.14062-1.2188 0.09375-8.0625-1.2188-16.266-1.875-24.422-2.0156-43.453 0-76.641 15.891-82.453 30.656l-0.046876-0.046875c-0.51562 1.2656-0.79687 2.625-0.84375 4.0312 0 13.828 33.234 34.641 83.297 34.641 51.094 0 83.672-20.531 83.672-34.641zm179.68-14.391c-18.141 5.7188-36.797 9.7031-55.688 12l66 302.72c0.046875 2.0625 0.09375 4.125 0.09375 6.1875-0.1875 1.1719-0.46875 2.3438-0.84375 3.4688-0.60938 2.2969-1.7812 4.4062-3.4219 6.1875-0.70312 0.89063-1.5 1.7344-2.3906 2.5312-0.98438 0.75-2.0625 1.4062-3.1875 1.9219-0.70312 0.46875-1.4062 0.9375-2.1094 1.3125-7.6875 2.8125-15.141 6.0938-22.406 9.8906-44.766 23.859-63.797 57.281-57.141 69.797 2.3906 3.7031 6.1875 6.2812 10.5 7.2188 14.391 4.4062 43.734 2.8594 79.219-16.031 45.141-23.859 64.219-57.328 57.609-69.844l-1.7812-5.1094zm86.578-157.64c-3.375-1.4062-6.75-2.7656-10.125-3.9844-14.672-5.0156-26.719-15.703-33.375-29.719-6.7031-14.016-7.4062-30.094-2.0625-44.672 1.7344-4.4062 4.0312-8.5781 6.7969-12.422-23.297-17.156-37.5-44.062-38.484-72.984-1.0312-28.969 11.297-56.766 33.375-75.469-36.797-82.547-99.234-165.61-171.61-165.61-53.766 0-110.2 48-154.87 131.72-38.859 73.031-60.375 154.03-62.812 236.72 0 65.625 18.656 110.62 57 137.58v0.046875c13.172 9.1406 27.703 16.125 43.078 20.625 28.172 8.6719 57.375 13.406 86.859 14.062 26.672 0.98438 53.391 0.60938 80.016-1.0781 29.391-1.7344 58.266-8.2969 85.5-19.5 46.922-20.156 73.172-58.078 80.719-115.27zm163.5 154.97c0.28125-14.672-6.75-28.5-18.797-36.844l-6.75-4.6406-1.2188-8.1094c-4.125-30.609-13.406-60.328-27.516-87.797-9.7031-19.406-22.453-37.125-37.781-52.5-16.031-16.172-34.547-29.672-54.891-39.938-3.7031-1.9688-7.9688-2.7656-12.188-2.2969-6.7969 1.1719-12.516 5.8594-15.047 12.281-1.875 4.8281-1.7344 10.172 0.32812 14.859 2.1094 4.7344 6 8.3906 10.828 10.266 9.6094 3.2344 18.984 7.125 28.125 11.625l10.359 5.8594c4.5938 2.6719 9 5.7656 13.125 9.1406 15.328 11.625 28.875 25.406 40.172 41.016 11.578 16.125 21.281 33.562 28.875 51.938 1.4062 3.7031 2.625 7.2656 3.7969 10.875l5.625 17.438-17.297 6c-16.641 6.5625-27.328 22.922-26.672 40.781-1.2188 10.969 2.2969 21.891 9.6562 30.094 7.3125 8.2031 17.812 12.891 28.828 12.891s21.469-4.6875 28.828-12.891c7.3125-8.2031 10.828-19.125 9.6094-30.094zm-827.11-91.688c-49.359-4.0781-83.531-19.406-101.53-45.609-25.031-36.422-11.484-83.859-11.344-84.328 3-9.8906-2.625-20.344-12.562-23.344s-20.391 2.625-23.344 12.562c-0.79687 2.625-18.891 64.547 16.125 115.92 24.656 36.188 68.203 57.094 129.61 62.156 0.51562 0 1.0312 0.046875 1.5938 0.046875l-0.046875 0.046875c9.9844-0.09375 18.188-8.0156 18.609-18 0.375-10.031-7.1719-18.562-17.109-19.453zm451.55-310.92c-4.9688 0-9.75 1.9688-13.266 5.4844-3.5156 3.5156-5.4844 8.25-5.4844 13.219v17.297c0.23437 10.172 8.5781 18.281 18.75 18.281 10.172 0 18.469-8.1094 18.75-18.281v-17.297c0-4.9688-1.9688-9.7031-5.5312-13.219-3.5156-3.5156-8.25-5.4844-13.219-5.4844zm-83.906 36-0.046876-17.297c-0.23437-10.172-8.5781-18.281-18.75-18.281-10.172 0-18.469 8.1094-18.75 18.281v17.297c0.28125 10.172 8.5781 18.281 18.75 18.281 10.172 0 18.516-8.1094 18.75-18.281zm-257.63 2.0156h-0.046875c4.9688 0 9.75-1.9688 13.266-5.4844s5.5312-8.2969 5.5312-13.266v-17.25c0.09375-5.0625-1.8281-9.9375-5.3438-13.547-3.5156-3.6562-8.3906-5.6719-13.406-5.6719-5.0625 0-9.9375 2.0156-13.453 5.6719-3.5156 3.6094-5.4375 8.4844-5.2969 13.547v17.297c-0.046875 4.9688 1.9688 9.75 5.4844 13.266s8.25 5.4844 13.219 5.4844zm-102.7 0c4.9688 0 9.75-1.9688 13.266-5.4844s5.4844-8.2969 5.4844-13.266v-17.25c0.14062-5.0625-1.7812-9.9375-5.3438-13.547-3.5156-3.6562-8.3438-5.6719-13.406-5.6719s-9.8906 2.0156-13.453 5.6719c-3.5156 3.6094-5.4375 8.4844-5.2969 13.547v17.297c0 4.9688 1.9688 9.75 5.4844 13.266s8.2969 5.4844 13.266 5.4844z"/>
</svg>
