<?xml version="1.0" encoding="UTF-8"?>
<svg width="1200pt" height="1200pt" version="1.1" viewBox="0 0 1200 1200" xmlns="http://www.w3.org/2000/svg">
 <path d="m991.08 654.84c0-74.297-166.78-117.28-345.24-129.52l461.63-414.94 5.1562-3.7969c23.766-24.844 23.297-64.078-1.0312-88.359-12.047-11.297-27.797-17.766-44.297-18.234-16.641 0.046875-32.531 6.7969-44.109 18.703l-493.22 502.26c-228.74 0.046874-460.26 46.031-460.26 133.87 0 62.531 114.19 95.625 193.69 111.09l-45.469 353.21c0 78.562 280.26 80.859 312.24 80.859 31.969 0 312.61-2.2969 312.47-83.25l-45.234-350.81c79.5-15.469 193.69-48.562 193.69-111.09zm-485.86-55.031 0.79688-0.79688 543.98-553.97c4.2188-5.3438 10.922-8.2031 17.672-7.5469 6.6094 0 12.984 2.6719 17.578 7.3594 9.6562 9.4219 10.219 24.703 1.3125 34.781l-498.79 447.66c-0.60938 0.46875-1.1719 0.98438-1.6875 1.5l-47.906 42.562c-0.65625 0.46875-1.2188 0.98438-1.7812 1.5469l-37.312 33.094zm260.72 35.906c-17.016 12.609-97.312 33.422-235.74 33.422-133.78 0-213.19-19.547-233.53-32.156 15.328-9.6094 67.078-24.844 165.05-30.234l-0.046875 0.046875c0.09375 9.8906 4.0781 19.312 11.109 26.297 7.0312 6.9375 16.594 10.781 26.484 10.688 9.2812 0 18.234-3.3281 25.266-9.4219l32.391-29.156c125.86 2.3906 195.89 21.938 208.97 30.516zm-658.74 19.125c0-37.359 149.02-90.656 385.5-95.859l-8.9531 9.1406c-74.391 2.625-228 14.625-228 68.953 0 66.234 228.61 69.609 274.45 69.609 45.844 0 274.87-3.375 274.87-69.609 0-49.641-127.5-63.938-207.84-68.062l9.2812-8.2969c223.45 9.8438 347.06 61.594 347.06 94.172 0 18.422-48 54.281-180.32 77.438h0.046876c-160.92 25.266-324.84 25.266-485.72 0-132.32-23.203-180.37-59.062-180.37-77.484zm659.72 168.37c-235.22 62.953-422.39 16.5-473.26 1.0312l6.75-52.125c76.031 11.578 152.86 17.25 229.78 17.016 77.016 0.28125 153.98-5.4375 230.16-17.016zm38.109 295.22c-11.672 16.359-110.39 44.156-274.87 44.156-164.26 0-262.78-27.844-274.5-44.156l33.141-256.26c76.312 21.469 155.26 32.062 234.47 31.406 83.906-0.32812 167.39-11.484 248.48-33.047zm-700.92-633c4.9688 0 9.75-1.9688 13.266-5.4844 3.5156-3.5156 5.4844-8.2969 5.4844-13.266 0.046874-36.75 29.859-66.562 66.609-66.609 5.0625 0.14062 9.9375-1.7812 13.547-5.2969 3.6562-3.5625 5.6719-8.3906 5.6719-13.453s-2.0156-9.8906-5.6719-13.406c-3.6094-3.5625-8.4844-5.4375-13.547-5.3438-36.656 0.046875-66.422-29.531-66.609-66.188-0.28125-10.172-8.5781-18.281-18.75-18.281-10.172 0-18.516 8.1094-18.75 18.281-0.14063 36.656-29.953 66.328-66.609 66.281-10.172 0.23438-18.281 8.5781-18.281 18.75s8.1094 18.469 18.281 18.75c36.75 0 66.562 29.812 66.609 66.609 0.046874 10.312 8.4375 18.656 18.75 18.656zm0-129.98c7.0781 10.125 15.891 18.891 26.016 25.922-10.125 7.0781-18.938 15.891-26.016 26.016-7.0781-10.125-15.891-18.938-26.016-26.016 10.125-7.0312 18.938-15.797 26.016-25.922zm857.48 2.25c0.14063-5.0156-1.7812-9.9375-5.2969-13.547-3.5625-3.6094-8.3906-5.6719-13.453-5.6719s-9.8906 2.0625-13.406 5.6719c-3.5156 3.6094-5.4375 8.5312-5.3438 13.547 0 33.375-27.047 60.422-60.422 60.469-5.0156-0.14062-9.9375 1.7812-13.547 5.3438-3.6094 3.5156-5.6719 8.3438-5.6719 13.406s2.0625 9.8906 5.6719 13.453c3.6094 3.5156 8.5312 5.4375 13.547 5.2969 33.281-0.046875 60.281 26.812 60.422 60.047 0.28125 10.172 8.5781 18.281 18.75 18.281 10.172 0 18.516-8.1094 18.75-18.281 0.1875-33.234 27.234-60.094 60.469-60.047 5.0625 0.14062 9.9375-1.7812 13.547-5.2969 3.6562-3.5625 5.6719-8.3906 5.6719-13.453s-2.0156-9.8906-5.6719-13.406c-3.6094-3.5625-8.4844-5.4844-13.547-5.3438-33.375-0.046875-60.422-27.094-60.469-60.469zm-18.75 101.11c-6.0938-8.4375-13.547-15.844-21.984-21.938 8.4375-6.0938 15.891-13.547 21.984-21.984 6.1406 8.4375 13.594 15.891 22.031 21.984-8.4375 6.0938-15.891 13.5-22.031 21.938zm-679.55-175.22 0.046874 0.046874c0 4.9688 1.9688 9.75 5.4844 13.266 3.5156 3.5156 8.2969 5.4844 13.266 5.4844 83.484 0.09375 151.13 67.734 151.26 151.22-0.14062 5.0625 1.7812 9.9375 5.3438 13.547 3.5156 3.6094 8.3438 5.6719 13.406 5.6719s9.8906-2.0625 13.453-5.6719c3.5156-3.6094 5.4375-8.4844 5.2969-13.547 0-83.391 67.5-151.03 150.89-151.22 5.0156 0.14063 9.9375-1.7812 13.547-5.2969 3.6094-3.5625 5.6719-8.3906 5.6719-13.453s-2.0625-9.8906-5.6719-13.406c-3.6094-3.5625-8.5312-5.4844-13.547-5.3438-83.297-0.09375-150.79-67.594-150.89-150.89-0.23438-10.172-8.5781-18.281-18.75-18.281s-18.469 8.1094-18.75 18.281c-0.1875 83.391-67.875 150.89-151.26 150.89-4.9688 0-9.75 1.9688-13.266 5.4844-3.5156 3.5156-5.4844 8.2969-5.4844 13.266zm188.81-89.203c18.609 39.094 50.109 70.594 89.203 89.25-39.094 18.656-70.594 50.25-89.203 89.391-18.703-39.188-50.25-70.734-89.438-89.391 39.188-18.609 70.734-50.109 89.438-89.25zm653.39 570.89v0.046875c6.9375 7.7344 6.2344 19.641-1.5 26.578-12.141 9.8438-28.594 12.469-43.219 6.8438-3-0.98438-6.1875-1.5469-9.375-1.6406 0.046875 3.0938 0.375 6.2344 0.9375 9.3281 4.9688 15.047 0.5625 31.594-11.203 42.234-11.812 10.594-28.734 13.266-43.172 6.7969-3.0469-0.98438-6.2344-1.5938-9.4219-1.6875 0.09375 1.0312 0.75 5.8594 1.2188 9.0938 5.0156 15.094 0.65625 31.781-11.203 42.422-11.812 10.688-28.875 13.312-43.359 6.7031-3.0469-1.0312-6.1875-1.5938-9.4219-1.7344-3.3281 3.0469-7.6875 4.6875-12.234 4.6875-7.8281 0-14.859-4.875-17.578-12.234s-0.51562-15.609 5.4375-20.719c12.188-9.6094 28.547-12 42.984-6.375 3.0938 0.84375 6.2812 1.4062 9.4688 1.7344-0.09375-1.0781-0.75-5.9062-1.2188-9.0938h0.046875c-5.0156-15.094-0.70312-31.688 11.062-42.328 11.812-10.688 28.734-13.359 43.219-6.8906 3.0469 1.0312 6.2344 1.5938 9.4219 1.6875 0-1.0312-0.75-5.8594-1.2188-9.0469h0.046875c-4.9219-15.094-0.51562-31.688 11.297-42.375 11.766-10.641 28.734-13.359 43.266-6.9375 3.0469 1.0312 6.2344 1.5938 9.4219 1.6875 3.6562-3.375 8.4844-5.1094 13.406-4.875 4.9688 0.23438 9.6094 2.4375 12.891 6.1406zm-992.58-556.5c-6.8906-7.7344-6.2344-19.594 1.4531-26.531 12.141-9.8906 28.641-12.469 43.219-6.8438 3.0469 0.9375 6.2344 1.5 9.4219 1.6406-0.09375-1.0781-0.75-5.9062-1.2188-9.1406-4.125-15.094 0.09375-31.219 11.109-42.328 12.188-9.8438 28.641-12.422 43.219-6.8438 3.0469 0.98438 6.1875 1.5938 9.4219 1.6406 0-1.0312-0.75-5.8594-1.2188-9.0469-4.1719-15.234 0.28125-31.5 11.531-42.562 12.141-9.75 28.547-12.328 43.078-6.75 3.0469 1.0312 6.1875 1.5938 9.4219 1.6875 3.6094-3.375 8.4844-5.1094 13.406-4.875 4.9688 0.28125 9.5625 2.4844 12.891 6.1875 6.8906 7.7344 6.2344 19.641-1.5 26.578-12.094 9.8438-28.594 12.469-43.172 6.8438-3.0938-0.9375-6.2344-1.5-9.4219-1.6406 0.09375 3.0938 0.375 6.2344 0.9375 9.3281 4.0781 15-0.1875 31.078-11.109 42.141-12.141 9.8438-28.641 12.469-43.219 6.8906-3.0469-1.0312-6.1875-1.5938-9.4219-1.6875 0.09375 1.0312 0.75 5.8594 1.2188 9.0938 4.1719 15.047-0.046875 31.219-11.062 42.328-12.141 9.8906-28.594 12.516-43.172 6.8906-3.0469-0.98438-6.2344-1.5469-9.4219-1.6406-3.6562 3.3281-8.4844 5.0625-13.453 4.8281-4.9219-0.23438-9.5625-2.4844-12.844-6.1875zm576.14-57.469 12.609 13.875-12.516-13.969c0-3.1406-0.28125-6.2344-0.79688-9.3281-3.9375-15.047 0.32812-31.078 11.25-42.141 12.188-9.8438 28.641-12.469 43.266-6.8906 3.0469 0.98438 6.2344 1.5469 9.4219 1.6875 3.6562-3.3281 8.4844-5.0625 13.453-4.8281 4.9219 0.23438 9.5625 2.4844 12.844 6.1406 6.8906 7.7344 6.2344 19.594-1.4531 26.531-12.188 9.8438-28.688 12.469-43.312 6.8906-3.0469-0.98438-6.1875-1.5469-9.4219-1.6875 0 1.2188 0.65625 6 1.125 9.2812 3.9375 15.047-0.32812 31.125-11.297 42.234-7.6406 6.9375-19.5 6.375-26.438-1.3125-6.9844-7.6406-6.4219-19.5 1.2656-26.484zm507.05 268.03c-6.3281 8.2031-18.094 9.7031-26.297 3.4219-11.812-10.031-17.484-25.547-14.906-40.828 0.32812-3.1406 0.28125-6.2812-0.1875-9.4219-3 0.75-5.9531 1.6875-8.8125 2.8125-13.969 7.1719-30.703 6.0938-43.688-2.7188-11.953-9.8438-17.719-25.266-15.188-40.547 0.32812-3.1875 0.23438-6.4219-0.28125-9.6094-8.25-6.1875-9.9375-17.906-3.75-26.156 6.1875-8.2969 17.906-9.9375 26.203-3.75 12 9.9844 17.859 25.594 15.328 41.062-0.32812 3.0938-0.23438 6.2344 0.23438 9.3281 1.0781-0.14062 5.5312-1.7344 8.3906-2.8125h0.046875c13.781-7.9219 30.938-6.9375 43.734 2.4844s18.844 25.547 15.375 41.062c-0.32812 3.1875-0.23438 6.4219 0.28125 9.6094 3.9375 2.9531 6.5156 7.4062 7.1719 12.281 0.70312 4.9219-0.65625 9.8438-3.6562 13.781z"/>
</svg>
