<?xml version="1.0" encoding="UTF-8"?>
<svg width="1200pt" height="1200pt" version="1.1" viewBox="0 0 1200 1200" xmlns="http://www.w3.org/2000/svg">
 <path d="m861.05 169.4-468.32 26.766c-18.656 1.7344-32.391 18.141-30.891 36.797l3.6094 128.68c-0.5625 18.234 13.453 33.562 31.641 34.641h433.64c15.703-0.60938 28.734-12.422 30.891-28.031l27.281-141.79c2.2031-11.438 6.2812-32.766-5.25-46.734h-0.046876c-5.5312-6.7031-13.828-10.453-22.547-10.312zm-8.9531 49.969-26.859 139.4h-422.39l-3.2344-125.44 454.22-25.969c-0.32813 4.0312-0.9375 8.0156-1.7344 12zm46.266-105.94c0.65625 10.312-7.125 19.266-17.438 19.969l-164.11 11.203h-1.3125v0.046875c-10.078-0.09375-18.281-8.1094-18.609-18.188s7.3594-18.562 17.391-19.312l164.06-11.156c10.312-0.70312 19.266 7.0781 20.016 17.438zm275.9 344.95c-5.3438-8.3438-13.688-14.344-23.344-16.734 0.89062-10.828-1.5-21.656-6.9375-31.031-6.1875-10.922-17.625-17.766-30.141-18-6.9844-0.046875-13.781 1.7812-19.781 5.2969-2.1094-4.2656-5.0156-8.0625-8.4844-11.297-9.4219-8.2969-22.359-11.344-34.453-8.0625-8.625 1.875-33.188 7.2188-48.141 78h0.046875c-15.234-7.0312-33.188-3.9844-45.234 7.6875-12.797 14.156-27.938 45.891 14.156 99.375 8.3438 10.688 18.656 19.688 30.375 26.484-25.453 46.922-67.922 82.266-118.69 98.812l119.06-606.14c4.875-22.875-1.2188-46.734-16.453-64.453-11.016-12.75-27.469-19.5-44.25-18.141l-615.32 55.078c-30.891 2.7656-54.281 33.422-53.25 69.703l13.406 459.1c-66 28.781-101.72 112.17-114.84 150h0.046875c-20.344-4.4531-41.531-2.4844-60.656 5.6719-27.469 10.312-52.312 26.578-72.703 47.672-18.703 20.859-24.891 42.469-17.391 60.797h-0.046875c3.4688 9.3281 10.359 16.922 19.266 21.281-3.1406 10.406-3.0469 21.516 0.28125 31.828 3.75 11.953 13.5 21 25.641 23.906 6.7969 1.4062 13.828 1.0312 20.484-1.0312 1.1719 4.5938 3.1875 8.9062 5.9062 12.797 7.4062 10.125 19.453 15.844 31.969 15.188 22.781 0 43.688-21.703 63.469-66.141l0.046875-0.046875c13.359 10.125 31.594 10.922 45.844 2.0625 12.797-9.2344 39.141-37.547 6.8906-100.5v0.046875c-8.25-15.422-20.109-28.594-34.547-38.438 9.6562-28.406 36.234-94.219 81.609-123.37l7.125 242.86c1.0781 36.562 26.391 65.203 57.703 65.203h135.84-0.046875c6.7031 26.859 8.625 54.703 5.7188 82.266-11.156-0.14062-22.031 3.0938-31.312 9.2344-7.3594 4.5-13.125 11.156-16.594 19.031-0.79688 2.0156-1.875 3.8906-3.1875 5.5781-4.9219-2.1562-9.6562-4.8281-14.062-7.9688-20.25-12.984-57.938-37.219-100.17-4.1719h0.046875c-30.797 24.234-44.109 64.547-33.844 102.38 6.75 30.141 31.078 53.203 61.547 58.359 7.8281 1.0312 15.75 1.5469 23.625 1.4531 53.203 0 135.32-17.25 165.19-40.406h0.046875c7.9688-5.4375 13.312-13.969 14.766-23.484 2.3906-18.797 3.4219-37.688 3.1875-56.578 2.4844-23.391-10.781-45.609-32.531-54.516 3.8438-30.422 2.5312-61.219-3.8438-91.219h109.73c-5.25 29.859-5.9531 60.328-2.1094 90.375-22.781 8.3906-36.891 31.219-34.266 55.359-0.23438 18.891 0.79688 37.781 3.1406 56.531 1.4531 9.5625 6.8438 18.047 14.812 23.484 29.859 23.156 112.03 40.453 165.19 40.406 7.9219 0.09375 15.797-0.375 23.625-1.4531 30.516-5.1094 54.844-28.172 61.594-58.312 10.266-37.828-3.0469-78.141-33.844-102.38-42.234-33-79.922-8.8125-100.12 4.1719-4.9219 3.1406-11.578 7.4062-10.547 8.3906-4.5469-1.6406-4.7344-1.9688-6.75-6-3.4219-7.9219-9.2344-14.578-16.594-19.078-8.7188-5.8125-18.938-9.0938-29.438-9.375-3.1875-27.422-1.875-55.125 3.8906-82.078h114c28.875-1.6406 52.5-23.625 56.203-52.266l29.578-150.47h-0.046875c70.922-16.922 130.69-64.406 163.22-129.61 2.625 0.23437 5.1562 0.89062 7.8281 0.89062 21.703-0.5625 42.844-6.8438 61.359-18.141 38.203-21.891 65.203-53.531 72.328-84.516 3.9375-13.969 1.8281-28.969-5.8125-41.344zm-966.61 346.26c10.172 19.828 16.688 44.203 6.9844 51.984h0.046876c-8.1562-2.4844-15.328-7.3594-20.578-14.016l-20.672-21.844-10.547 28.125c-18.984 50.766-34.5 64.781-39.562 66.328l0.046876 0.046876c-1.2188-6.5156-0.60938-13.219 1.6875-19.453l25.828-75.984-56.859 56.672c-5.3906 4.9688-11.297 9.375-17.531 13.219-1.4531-2.1562-2.0156-13.125 9.4219-27.141l58.922-72.422-82.312 44.016c-1.0781 0.5625-4.7812 1.6406-6.5625-0.14063-1.0781-2.625 0.89062-10.781 10.641-21.609h-0.046874c16.688-16.781 36.797-29.719 58.969-37.922 53.719-21.891 81.844 29.625 82.125 30.141zm318.47 275.48c0.28125 16.453-0.60938 32.953-2.6719 49.312-15.281 14.859-113.72 38.719-161.26 31.969-15.516-3.1875-27.609-15.328-30.656-30.844-6.1875-23.297 1.9219-48.047 20.625-63.188 6.0469-5.3438 13.781-8.4375 21.891-8.7656 12.797 1.6875 24.891 6.8438 34.969 14.953 13.641 8.7188 27.703 17.766 43.547 12.094h-0.046875c12.328-3.7969 22.406-12.75 27.609-24.562 1.5469-3.1406 1.6406-3.1875 2.2969-3.6094 1.5938-0.9375 2.8594-1.5938 4.1719-2.25-0.42188 1.3125-0.79688 2.3906-0.79688 2.4844v-0.046874c-3.6094 9.7031 1.3594 20.484 11.016 24.094 2.1094 0.79687 4.3125 1.1719 6.5625 1.1719 7.8281 0 14.812-4.8281 17.531-12.141 0.1875-0.46875 1.0312-3 2.1094-6.5156 2.625 3.2344 3.7969 7.4062 3.3281 11.531l-0.32812 1.9688zm152.86-20.719c0-0.09375-0.375-1.5469-0.9375-3.9375 1.2188 0.65625 2.3906 1.2188 3.75 2.0625 0.70312 0.42188 0.75 0.46875 2.3906 3.6094l0.046875-0.046876c5.1562 11.812 15.234 20.766 27.516 24.562 15.844 5.7656 29.906-3.3281 43.547-12.141 21.984-14.062 36.422-22.031 56.812-6.1875v0.046874c18.75 15.141 26.812 39.891 20.672 63.188-3.0938 15.562-15.188 27.703-30.703 30.844-47.391 6.75-145.92-17.109-161.26-31.969-2.1094-16.359-2.9531-32.859-2.625-49.312l0.09375-2.2969-0.23438-1.9219h-0.046875c-0.5625-4.3125 0.75-8.625 3.6094-11.953 0.70312 2.9062 1.2188 4.7344 1.3125 5.2031h-0.046875c2.7188 9.9844 12.984 15.891 22.969 13.219 10.031-2.7188 15.938-12.984 13.219-22.969zm161.9-347.06v0.1875l-31.828 161.81c-2.5312 12.75-10.688 21.984-19.453 21.984h-436.82c-10.5 0-19.734-13.219-20.203-28.781l-21.703-743.63c-0.51562-17.625 9.4688-30.375 19.078-31.266l615.42-55.125c5.0156-0.14062 9.7969 2.0625 12.938 6 7.2188 9 10.031 20.766 7.5938 32.062zm302.72-221.02c-3.75 16.172-19.969 40.547-54.469 60.328-36.094 20.719-65.578 16.922-87.609-11.156-6.7969-8.625-27.891-37.688-18-49.641v0.046874c0.32812-0.046874 0.60938-0.09375 0.89062-0.09375 8.1094 1.1719 15.75 4.4531 22.219 9.4688l24.797 16.969 4.3594-29.766c7.8281-53.578 20.062-70.641 24.656-73.219l-0.046875 0.046874c2.5312 6.1406 3.375 12.844 2.3906 19.406l-9 78.562 43.359-66.141v-0.046876c4.2656-6 9.0938-11.578 14.438-16.641 1.9219 1.8281 4.7344 12.375-3.4688 28.5l-39.094 76.922 67.688-53.953c1.7344-1.4062 4.9219-2.7656 6.6562-1.4062v0.046874c1.5 3.75 1.5938 7.9688 0.23438 11.766zm-301.31-42.047c-0.28125-0.89062-0.65625-1.7812-1.125-2.6719-0.75-1.3594-1.6406-2.625-2.7188-3.75-0.46875-0.5625-0.98437-1.0781-1.5469-1.5469-1.2188-1.0781-2.5781-1.9688-4.0312-2.625-0.79688-0.42187-1.5938-0.75-2.3906-1.0312-0.65625-0.28125-1.2656-0.5625-1.9219-0.79687-0.75-0.046876-1.5-0.046876-2.2031 0-0.60937-0.14063-1.2188-0.28125-1.875-0.375l-139.03 2.7188c-0.42187-0.09375-0.79687-0.375-1.2188-0.42188h0.046876c-2.0156-0.14062-4.0781 0.046876-6 0.51563l-140.53 2.7656c-1.7344-0.65625-3.5156-1.0312-5.3438-1.1719-2.4844-0.046876-4.9688 0.42187-7.2188 1.4531l-133.97 2.625h-0.23438c-1.3594 0.1875-2.6719 0.46875-3.9844 0.9375-1.0781 0.1875-2.1094 0.42188-3.1406 0.75-1.1719 0.65625-2.2969 1.4062-3.2812 2.2969-2.2031 1.0781-3.8906 2.9531-4.7812 5.25-0.60937 0.84375-1.1719 1.7344-1.6406 2.6719-0.42188 1.3125-0.65625 2.6719-0.75 4.0312-0.28125 1.0781-0.51563 2.1094-0.60938 3.1875v0.1875l3.4219 114.52 0.046874 0.046874c-0.51562 1.4531-0.79687 2.9531-0.9375 4.5 0.09375 2.0625 0.46875 4.125 1.2188 6.0938l7.2656 242.21c0.14062 1.4531 0.46875 2.9062 0.98437 4.2656 0.14063 0.89062 0.32813 1.7812 0.60938 2.6719 0.70312 1.4062 1.5938 2.7188 2.6719 3.9375 0.42188 0.65625 0.84375 1.3125 1.3594 1.9219 1.2656 1.125 2.6719 2.0625 4.2188 2.8125 0.5625 0.42188 1.125 0.79688 1.6875 1.125 2.2969 0.98438 4.7344 1.4531 7.2188 1.4531h0.65625l346.31-1.7344c0.14062 0 0.23438-0.09375 0.375-0.09375 4.4531-0.32812 8.6719-2.0625 12.047-4.9688 0.65625-0.60938 1.2188-1.2656 1.7344-1.9219 1.5469-1.7812 2.6719-3.8438 3.3281-6.0938 0.28125-0.65625 0.5625-1.3125 0.79688-1.9688l75.422-374.11c0.14062-0.70312-0.09375-1.3594 0-2.0625 0.14062-0.65625 0.28125-1.3125 0.375-2.0156-0.09375-0.51563-0.23438-1.0312-0.375-1.5469-0.14062-1.4062-0.46875-2.7188-0.9375-4.0312zm-336.74 362.53-84.75 0.42188-2.5781-86.25 89.156 1.5zm2.6719-121.82-91.125-1.5469-2.5781-86.297 95.625 0.09375zm2.7188-125.26-97.547-0.09375-2.4844-82.5 101.86-2.0156zm113.67 246.47-81.469 0.42188 1.8281-83.531 88.594 1.5zm13.031-119.06-91.875-1.5469 1.9219-88.359 99.797 0.09375zm13.969-127.31-103.08-0.09375 1.875-85.359 110.81-2.1562zm82.453 245.86-71.672 0.375 8.8125-80.766 78.797 1.3125zm23.484-116.39-82.266-1.4062 9.9375-90.516 90.844 0.09375zm26.062-129.37-94.312-0.09375 9.6562-88.359 102.89-2.0156zm-313.03-276.37c5.0156-9.0469 16.359-12.375 25.453-7.4531 4.2188 2.2969 105.38 55.781 251.29-5.0156 4.5938-1.9688 9.7969-2.0625 14.438-0.1875s8.3906 5.5781 10.312 10.172c1.9219 4.6406 1.9219 9.8438-0.046875 14.484-1.9219 4.6406-5.6719 8.2969-10.312 10.125-47.953 20.578-99.562 31.406-151.74 31.781-45.656 1.0312-90.938-8.7188-132.1-28.5-9-5.0156-12.281-16.359-7.3125-25.406zm99.422-16.312c-3.5625-3.5625-5.5781-8.4375-5.625-13.5 0.14062-2.4375 0.65625-4.8281 1.5-7.125 2.0156-4.5 5.625-8.1094 10.125-10.125 7.0781-2.7188 15.094-1.125 20.625 4.125 1.5938 1.7812 2.8594 3.7969 3.75 6 1.0312 2.25 1.5469 4.6875 1.5 7.125 0.046875 5.0156-1.8281 9.8438-5.25 13.5-3.7031 3.3281-8.5312 5.2031-13.5 5.25-2.4375 0-4.8281-0.42188-7.125-1.1719-2.1562-1.1719-4.1719-2.5312-6-4.0781zm74.625-6c-1.0312-2.3438-1.5469-4.9219-1.5-7.5-0.046875-2.4375 0.46875-4.875 1.5-7.125 0.89062-2.2031 2.1562-4.2188 3.75-6 1.7812-1.6875 3.7969-3.0938 6-4.0781 7.125-2.7188 15.141-1.125 20.625 4.0781 3.375 3.5625 5.3906 8.25 5.625 13.125-0.14062 2.5781-0.65625 5.1094-1.5 7.5-1.125 2.1562-2.5312 4.1719-4.125 6-3.5156 3.4219-8.25 5.2969-13.125 5.25-2.5312 0-5.0625-0.42188-7.5-1.1719-2.1094-1.1719-4.125-2.5312-6-4.125-1.5469-1.7812-2.8125-3.75-3.7031-5.9531z"/>
</svg>
