<?xml version="1.0" encoding="UTF-8"?>
<svg width="1200pt" height="1200pt" version="1.1" viewBox="0 0 1200 1200" xmlns="http://www.w3.org/2000/svg">
 <path d="m1176.6 243.66-16.312-6.6094c-0.09375 0-0.09375-0.09375-0.1875-0.14062h0.046875-0.28125l-486.28-197.29c-13.781-5.5781-29.484-2.5312-40.172 7.7344l-621.94 600.37c-7.2656 7.125-11.391 16.828-11.437 27v136.22c0 14.812 8.6719 28.219 22.172 34.266l557.58 248.76c2.25 0.70312 4.5938 1.2188 6.9844 1.5 3.4219 3.6094 8.2031 5.6719 13.172 5.7656 0.70312 0 1.3594-0.046875 2.0625-0.14062 7.1719-0.79688 13.266-5.6719 15.609-12.516 2.0156-1.2188 3.9375-2.625 5.6719-4.2188l108.28-124.13 120 183.61c5.4375 8.3438 13.875 14.25 23.578 16.406 8.625 1.875 17.391 2.8594 26.203 2.8594 29.344 1.125 57.281-12.656 74.297-36.609 18.938-27.469 19.312-63.609 1.0312-91.5l-132.84-203.29 346.97-397.5c5.9531-6.8438 9.2344-15.609 9.2344-24.656v-131.16c0.046876-15.281-9.2344-29.062-23.438-34.734zm-1139.1 567.28v-114.8l525.37 244.74c0.9375 0.42188 2.0156 0.32812 3 0.65625l12 110.48zm541.22 96-527.39-245.58 0.09375-0.09375v-0.09375l608.02-586.82 486.47 197.34-349.4 391.31c26.25-55.547 31.688-118.69 15.328-177.94s-53.438-110.62-104.44-144.84c-51.047-34.219-112.69-49.031-173.68-41.672-104.39 12.281-187.26 83.578-227.53 195.61-1.3125 3.6562-2.1094 7.5-2.3906 11.344-7.0781 106.59 30.094 196.45 104.58 253.08h-0.046874c68.859 52.5 159.66 66.609 241.22 37.453l11.906 18.234zm35.297 130.97-11.203-103.22v0.046875c1.3594-0.84375 2.625-1.7812 3.8438-2.8125l75.938-85.078 0.70312 1.125h0.046875c-3.0938 19.688 1.0781 39.844 11.812 56.672l15.094 22.969zm102.75-207.52-35.859-54.844c-6.9375-10.453-18.656-16.734-31.219-16.688-4.3594 0-8.7188 0.70312-12.797 2.2031-69.75 24.609-147.14 12.469-205.97-32.344-64.125-48.656-96-127.03-89.531-221.86 35.203-98.156 106.88-160.5 196.6-171.05 60-7.2188 120.28 10.641 166.69 49.312 46.406 38.672 74.859 94.734 78.609 155.02 3.7969 60.281-17.438 119.48-58.688 163.64-11.906 12.516-13.688 31.5-4.3594 46.031l35.766 54.75 0.1875 0.32813c5.0625 7.9688 4.875 18.188-0.46875 25.969-5.3906 7.7812-14.859 11.625-24.141 9.7031-6.0938-1.2656-11.438-4.9219-14.812-10.172zm228.47 225.1v0.046875c9.9375 15.094 9.7031 34.781-0.60938 49.688-12 17.578-34.688 24.094-61.688 18.094l-156.32-239.21c-1.0781-2.2031-1.9688-4.5-2.625-6.8438 32.906 6.7969 65.109-14.297 72-47.156 1.875 1.5469 3.6562 3.2812 5.2031 5.1094zm217.26-645.94-341.53 391.22c-9.9844-9.375-22.172-16.125-35.391-19.547l-18.609-28.781 395.53-443.02zm-509.58-110.86 199.55 84.703v-0.046875c13.781 5.9062 29.719 3 40.547-7.3594l30.75-29.344h-0.046875c9.1406-8.7188 13.266-21.422 11.016-33.844-2.2969-12.422-10.641-22.875-22.266-27.797l-199.55-84.703c-13.781-5.8594-29.719-2.9531-40.547 7.4062l-30.703 29.344h-0.046875c-9.0938 8.7188-13.219 21.422-10.969 33.844s10.641 22.875 22.266 27.797zm14.625-34.547 30.75-29.344 199.5 84.75-30.656 29.344-199.64-84.703-12.891-13.594zm71.344 320.39v-0.09375c7.3125-116.2-64.781-183.94-139.5-199.55-74.812-15.891-167.81 17.578-207.66 127.03-1.3594 3.7969-2.1562 7.7812-2.3906 11.766-7.125 115.92 64.875 183.61 139.4 199.22 11.672 2.4375 23.531 3.6094 35.438 3.6094 66.469 0 138.37-37.875 172.18-130.03h-0.046875c1.4531-3.8438 2.2969-7.8281 2.5781-11.906zm-37.734-1.0781c-32.297 88.078-105.94 115.03-164.76 102.75-58.781-12.281-115.41-66.609-109.41-161.53 27.328-75.047 84.75-105.84 137.48-105.84v0.046875c9.1406 0 18.281 0.89062 27.234 2.7656 58.875 12.328 115.64 66.703 109.73 160.5l18.703 1.2188z"/>
</svg>
